<svg width="196" height="56" viewBox="0 0 196 56" fill="none" xmlns="http://www.w3.org/2000/svg">
<path d="M91.7271 15.0322L91.6378 15.7106H89.0729V23.8002H88.32V15.7106H85.7295V15.0322H91.7271Z" fill="#27201A"/>
<path d="M105.577 23.8002L104.811 21.4066H101.136L100.37 23.8002H99.5919L102.514 15.0322H103.471L106.381 23.8002H105.577ZM101.353 20.7538H104.607L102.986 15.6594L101.353 20.7538Z" fill="#27201A"/>
<path d="M116.952 15.0322V23.109H120.602L120.5 23.8002H116.187V15.0322H116.952Z" fill="#27201A"/>
<path d="M134.876 15.0322L134.786 15.6722H131.201V18.9362H134.302V19.5762H131.201V23.1602H134.965V23.8002H130.435V15.0322H134.876Z" fill="#27201A"/>
<path d="M150.887 23.8002H149.879L145.757 15.877C145.825 16.9437 145.859 17.9506 145.859 18.8978V23.8002H145.132V15.0322H146.115L150.262 22.9554C150.194 21.9656 150.16 21.0994 150.16 20.357V15.0322H150.887V23.8002Z" fill="#27201A"/>
<path d="M166.658 15.0322L166.568 15.7106H164.003V23.8002H163.251V15.7106H160.66V15.0322H166.658Z" fill="#27201A"/>
<path d="M91.3953 32.6322L91.306 33.2722H87.7202V36.5362H90.8211V37.1762H87.7202V40.7602H91.4847V41.4002H86.9545V32.6322H91.3953Z" fill="#27201A"/>
<path d="M103.936 36.6514L106.667 41.4002H105.799L103.476 37.189L101.192 41.4002H100.363L103.03 36.6898L100.631 32.6322H101.498L103.489 36.1778L105.48 32.6322H106.309L103.936 36.6514Z" fill="#27201A"/>
<path d="M118.428 32.6322C119.466 32.6322 120.261 32.8498 120.814 33.285C121.376 33.7117 121.657 34.3688 121.657 35.2562C121.657 36.1949 121.363 36.8861 120.776 37.3298C120.198 37.765 119.402 37.9826 118.39 37.9826H117.139V41.4002H116.373V32.6322H118.428ZM118.39 37.3554C119.181 37.3554 119.789 37.1976 120.215 36.8818C120.64 36.5661 120.853 36.0285 120.853 35.269C120.853 34.5522 120.644 34.0402 120.227 33.733C119.819 33.4173 119.215 33.2594 118.415 33.2594H117.139V37.3554H118.39Z" fill="#27201A"/>
<path d="M132.584 32.6322V40.709H136.233L136.131 41.4002H131.818V32.6322H132.584Z" fill="#27201A"/>
<path d="M148.442 32.4914C149.157 32.4914 149.782 32.6664 150.318 33.0162C150.854 33.3576 151.271 33.8696 151.568 34.5522C151.866 35.2349 152.015 36.0584 152.015 37.0226C152.015 37.9698 151.866 38.7848 151.568 39.4674C151.279 40.1416 150.867 40.6578 150.331 41.0162C149.795 41.3661 149.165 41.541 148.442 41.541C147.736 41.541 147.115 41.3661 146.579 41.0162C146.043 40.6664 145.626 40.1544 145.328 39.4802C145.031 38.8061 144.882 37.9912 144.882 37.0354C144.882 36.0882 145.031 35.2733 145.328 34.5906C145.626 33.908 146.043 33.3874 146.579 33.029C147.123 32.6706 147.744 32.4914 148.442 32.4914ZM148.442 33.1442C147.591 33.1442 146.919 33.4728 146.426 34.1298C145.932 34.7784 145.686 35.7469 145.686 37.0354C145.686 38.3069 145.932 39.2669 146.426 39.9154C146.928 40.564 147.6 40.8882 148.442 40.8882C149.318 40.8882 149.999 40.5682 150.484 39.9282C150.969 39.2797 151.211 38.3112 151.211 37.0226C151.211 35.7256 150.964 34.757 150.471 34.117C149.986 33.4685 149.31 33.1442 148.442 33.1442Z" fill="#27201A"/>
<path d="M164.96 37.4706H163.212V41.4002H162.446V32.6322H164.564C166.64 32.6322 167.678 33.4258 167.678 35.013C167.678 35.6445 167.512 36.148 167.18 36.5234C166.848 36.8989 166.364 37.1677 165.726 37.3298L168.125 41.4002H167.219L164.96 37.4706ZM164.666 36.8434C166.13 36.8434 166.861 36.2333 166.861 35.013C166.861 34.4157 166.678 33.9762 166.313 33.6946C165.947 33.4045 165.355 33.2594 164.539 33.2594H163.212V36.8434H164.666Z" fill="#27201A"/>
<path d="M182.581 32.6322L182.491 33.2722H178.906V36.5362H182.006V37.1762H178.906V40.7602H182.67V41.4002H178.14V32.6322H182.581Z" fill="#27201A"/>
<path d="M18.2641 0H23.0494H41.3135V0.799999H23.0494V56H18.2641V0.799999H0V0H18.2641Z" fill="#27201A"/>
<path d="M47.7463 0H52.5317H76.3787V0.799999H52.5317V27.6H66.489V28.32H52.5317V55.2H76.3787V56H52.5317H47.7463V0Z" fill="#27201A"/>
<path d="M75.1699 0.399902H196M75.1699 55.5999H196" stroke="#27201A" stroke-width="0.8"/>
</svg>
